<mxfile host="app.diagrams.net" agent="Mozilla/5.0 (X11; Linux x86_64) AppleWebKit/537.36 (KHTML, like Gecko) Chrome/135.0.0.0 Safari/537.36" version="27.0.5">
  <diagram name="Stránka-1" id="fiQXkiRCZMZ5qAbcWfy-">
    <mxGraphModel dx="1407" dy="1790" grid="0" gridSize="10" guides="1" tooltips="1" connect="1" arrows="1" fold="1" page="0" pageScale="1" pageWidth="827" pageHeight="1169" math="0" shadow="0">
      <root>
        <mxCell id="0" />
        <mxCell id="1" parent="0" />
        <mxCell id="MdcfMWbTVEy-9bZ3t4bT-2" value="" style="group" parent="1" vertex="1" connectable="0">
          <mxGeometry x="49.370000000000005" y="-394" width="150.25" height="150" as="geometry" />
        </mxCell>
        <mxCell id="MdcfMWbTVEy-9bZ3t4bT-3" value="&lt;span style=&quot;font-size: 13px;&quot;&gt;AR1&lt;/span&gt;" style="shape=stencil(tZThDoIgFIWfhr8NZD1Ao3oP1GsyDRxS1tt3BdvC1LWmm2O75+h3z4Ar4aItZQMkoSXhR5IkjFJcse5GtWwbyFwQ79IqmdYQnNZZU0GncjcwlC7BKte7/EToAd/pHy4yozVClNFt5Hz4CJNK47f0EWBD+2dUNci/ggM7hPTq+Xfmbr8BlW2RNGa+c6+bdCVqnJVtclLrUNmfTC5QmbvEXKQyqy7W3HQ+mcT287N8r8dDNxrKiTQzPbkojIWFMIWq6zC4cxs37fqmX2yvhj+JF14=);whiteSpace=wrap;html=1;strokeWidth=2;spacingTop=0;verticalAlign=top;spacingBottom=0;spacing=0;labelPosition=center;verticalLabelPosition=bottom;align=center;" parent="MdcfMWbTVEy-9bZ3t4bT-2" vertex="1">
          <mxGeometry width="150.24999999999997" height="148.125" as="geometry" />
        </mxCell>
        <mxCell id="MdcfMWbTVEy-9bZ3t4bT-4" value="&lt;span style=&quot;font-size: 13px; text-wrap-mode: wrap;&quot;&gt;Implementační&amp;nbsp;&lt;/span&gt;&lt;div&gt;&lt;span style=&quot;font-size: 13px; text-wrap-mode: wrap;&quot;&gt;jednotka&lt;/span&gt;&lt;/div&gt;" style="text;html=1;resizable=1;points=[];autosize=0;align=center;verticalAlign=middle;spacingTop=0;fontSize=20;spacing=0;resizeWidth=1;resizeHeight=1;labelPosition=center;verticalLabelPosition=middle;" parent="MdcfMWbTVEy-9bZ3t4bT-2" vertex="1">
          <mxGeometry x="37.56249999999999" width="75.12499999999999" height="148.125" as="geometry" />
        </mxCell>
        <mxCell id="MdcfMWbTVEy-9bZ3t4bT-46" value="" style="group" parent="MdcfMWbTVEy-9bZ3t4bT-2" vertex="1" connectable="0">
          <mxGeometry x="45.12999999999988" y="-30" width="60" height="60" as="geometry" />
        </mxCell>
        <mxCell id="MdcfMWbTVEy-9bZ3t4bT-47" value="&lt;span style=&quot;font-size: 13px&quot;&gt;&lt;br&gt;&lt;/span&gt;" style="ellipse;aspect=fixed;rounded=0;strokeColor=#000000;strokeWidth=2;fillColor=default;fontSize=12;verticalAlign=top;whiteSpace=wrap;html=1;labelPadding=0;noLabel=0;horizontal=1;labelPosition=center;verticalLabelPosition=bottom;align=center;spacing=-30;spacingRight=0;spacingTop=25;resizable=1;movable=1;rotatable=1;snapToPoint=1;cloneable=0;pointerEvents=0;recursiveResize=0;expand=0;editable=1;allowArrows=0;deletable=1;connectable=1;" parent="MdcfMWbTVEy-9bZ3t4bT-46" vertex="1">
          <mxGeometry width="60" height="60" as="geometry" />
        </mxCell>
        <mxCell id="MdcfMWbTVEy-9bZ3t4bT-48" value="&lt;font style=&quot;font-size: 12px&quot;&gt;&lt;font style=&quot;font-size: 12px&quot;&gt;TK01&lt;/font&gt;&lt;br style=&quot;font-size: 12px&quot;&gt;&lt;/font&gt;" style="rhombus;whiteSpace=wrap;html=1;rounded=0;strokeColor=#FF6666;strokeWidth=2;fillColor=none;fontSize=12;aspect=fixed;resizable=1;rotatable=1;connectable=1;allowArrows=0;recursiveResize=1;movable=1;deletable=1;editable=1;" parent="MdcfMWbTVEy-9bZ3t4bT-46" vertex="1">
          <mxGeometry x="2" y="2" width="56" height="56" as="geometry" />
        </mxCell>
        <mxCell id="MdcfMWbTVEy-9bZ3t4bT-20" value="" style="group" parent="1" vertex="1" connectable="0">
          <mxGeometry x="-175.38" y="-394" width="151" height="151" as="geometry" />
        </mxCell>
        <mxCell id="MdcfMWbTVEy-9bZ3t4bT-21" value="&lt;font style=&quot;font-size: 13px&quot;&gt;CAR&lt;/font&gt;" style="shape=stencil(tZThDoIgFIWfhr8NZD1Ao3oP1GsyDRxS1tt3BdvC1LWmm2O75+h3z4Ar4aItZQMkoSXhR5IkjFJcse5GtWwbyFwQ79IqmdYQnNZZU0GncjcwlC7BKte7/EToAd/pHy4yozVClNFt5Hz4CJNK47f0EWBD+2dUNci/ggM7hPTq+Xfmbr8BlW2RNGa+c6+bdCVqnJVtclLrUNmfTC5QmbvEXKQyqy7W3HQ+mcT287N8r8dDNxrKiTQzPbkojIWFMIWq6zC4cxs37fqmX2yvhj+JF14=);whiteSpace=wrap;html=1;strokeWidth=2;spacingTop=0;verticalAlign=top;spacingBottom=0;spacing=0;labelPosition=center;verticalLabelPosition=bottom;align=center;fillColor=#B3B3B3;" parent="MdcfMWbTVEy-9bZ3t4bT-20" vertex="1">
          <mxGeometry width="151" height="149.1125" as="geometry" />
        </mxCell>
        <mxCell id="MdcfMWbTVEy-9bZ3t4bT-22" value="Legislativa" style="text;html=1;resizable=1;points=[];autosize=0;align=center;verticalAlign=middle;spacingTop=0;fontSize=20;spacing=0;resizeWidth=1;resizeHeight=1;labelPosition=center;verticalLabelPosition=middle;" parent="MdcfMWbTVEy-9bZ3t4bT-20" vertex="1">
          <mxGeometry x="37.75" width="75.5" height="149.1125" as="geometry" />
        </mxCell>
        <mxCell id="MdcfMWbTVEy-9bZ3t4bT-49" value="" style="group" parent="1" vertex="1" connectable="0">
          <mxGeometry x="50.870000000000005" y="-113" width="150.25" height="150" as="geometry" />
        </mxCell>
        <mxCell id="MdcfMWbTVEy-9bZ3t4bT-50" value="&lt;span style=&quot;font-size: 13px;&quot;&gt;AR2&lt;/span&gt;" style="shape=stencil(tZThDoIgFIWfhr8NZD1Ao3oP1GsyDRxS1tt3BdvC1LWmm2O75+h3z4Ar4aItZQMkoSXhR5IkjFJcse5GtWwbyFwQ79IqmdYQnNZZU0GncjcwlC7BKte7/EToAd/pHy4yozVClNFt5Hz4CJNK47f0EWBD+2dUNci/ggM7hPTq+Xfmbr8BlW2RNGa+c6+bdCVqnJVtclLrUNmfTC5QmbvEXKQyqy7W3HQ+mcT287N8r8dDNxrKiTQzPbkojIWFMIWq6zC4cxs37fqmX2yvhj+JF14=);whiteSpace=wrap;html=1;strokeWidth=2;spacingTop=0;verticalAlign=top;spacingBottom=0;spacing=0;labelPosition=center;verticalLabelPosition=bottom;align=center;" parent="MdcfMWbTVEy-9bZ3t4bT-49" vertex="1">
          <mxGeometry width="150.24999999999997" height="148.125" as="geometry" />
        </mxCell>
        <mxCell id="MdcfMWbTVEy-9bZ3t4bT-51" value="&lt;span style=&quot;font-size: 13px; text-wrap-mode: wrap;&quot;&gt;Informační&amp;nbsp;&lt;/span&gt;&lt;div&gt;&lt;span style=&quot;font-size: 13px; text-wrap-mode: wrap;&quot;&gt;jednotka&lt;/span&gt;&lt;/div&gt;" style="text;html=1;resizable=1;points=[];autosize=0;align=center;verticalAlign=middle;spacingTop=0;fontSize=20;spacing=0;resizeWidth=1;resizeHeight=1;labelPosition=center;verticalLabelPosition=middle;" parent="MdcfMWbTVEy-9bZ3t4bT-49" vertex="1">
          <mxGeometry x="37.56249999999999" width="75.12499999999999" height="148.125" as="geometry" />
        </mxCell>
        <mxCell id="MdcfMWbTVEy-9bZ3t4bT-52" value="" style="group" parent="MdcfMWbTVEy-9bZ3t4bT-49" vertex="1" connectable="0">
          <mxGeometry x="45.12999999999988" y="-30" width="60" height="60" as="geometry" />
        </mxCell>
        <mxCell id="MdcfMWbTVEy-9bZ3t4bT-53" value="&lt;span style=&quot;font-size: 13px&quot;&gt;&lt;br&gt;&lt;/span&gt;" style="ellipse;aspect=fixed;rounded=0;strokeColor=#000000;strokeWidth=2;fillColor=default;fontSize=12;verticalAlign=top;whiteSpace=wrap;html=1;labelPadding=0;noLabel=0;horizontal=1;labelPosition=center;verticalLabelPosition=bottom;align=center;spacing=-30;spacingRight=0;spacingTop=25;resizable=1;movable=1;rotatable=1;snapToPoint=1;cloneable=0;pointerEvents=0;recursiveResize=0;expand=0;editable=1;allowArrows=0;deletable=1;connectable=1;" parent="MdcfMWbTVEy-9bZ3t4bT-52" vertex="1">
          <mxGeometry width="60" height="60" as="geometry" />
        </mxCell>
        <mxCell id="MdcfMWbTVEy-9bZ3t4bT-54" value="&lt;font style=&quot;font-size: 12px&quot;&gt;&lt;font style=&quot;font-size: 12px&quot;&gt;TK02&lt;/font&gt;&lt;br style=&quot;font-size: 12px&quot;&gt;&lt;/font&gt;" style="rhombus;whiteSpace=wrap;html=1;rounded=0;strokeColor=#FF6666;strokeWidth=2;fillColor=none;fontSize=12;aspect=fixed;resizable=1;rotatable=1;connectable=1;allowArrows=0;recursiveResize=1;movable=1;deletable=1;editable=1;" parent="MdcfMWbTVEy-9bZ3t4bT-52" vertex="1">
          <mxGeometry x="2" y="2" width="56" height="56" as="geometry" />
        </mxCell>
        <mxCell id="MdcfMWbTVEy-9bZ3t4bT-55" value="" style="group" parent="1" vertex="1" connectable="0">
          <mxGeometry x="277" y="-113" width="150.25" height="150" as="geometry" />
        </mxCell>
        <mxCell id="MdcfMWbTVEy-9bZ3t4bT-56" value="&lt;span style=&quot;font-size: 13px;&quot;&gt;AR3&lt;/span&gt;" style="shape=stencil(tZThDoIgFIWfhr8NZD1Ao3oP1GsyDRxS1tt3BdvC1LWmm2O75+h3z4Ar4aItZQMkoSXhR5IkjFJcse5GtWwbyFwQ79IqmdYQnNZZU0GncjcwlC7BKte7/EToAd/pHy4yozVClNFt5Hz4CJNK47f0EWBD+2dUNci/ggM7hPTq+Xfmbr8BlW2RNGa+c6+bdCVqnJVtclLrUNmfTC5QmbvEXKQyqy7W3HQ+mcT287N8r8dDNxrKiTQzPbkojIWFMIWq6zC4cxs37fqmX2yvhj+JF14=);whiteSpace=wrap;html=1;strokeWidth=2;spacingTop=0;verticalAlign=top;spacingBottom=0;spacing=0;labelPosition=center;verticalLabelPosition=bottom;align=center;" parent="MdcfMWbTVEy-9bZ3t4bT-55" vertex="1">
          <mxGeometry width="150.24999999999997" height="148.125" as="geometry" />
        </mxCell>
        <mxCell id="MdcfMWbTVEy-9bZ3t4bT-57" value="&lt;span style=&quot;font-size: 13px; text-wrap-mode: wrap;&quot;&gt;Oznamovací&amp;nbsp;&lt;/span&gt;&lt;div&gt;&lt;span style=&quot;font-size: 13px; text-wrap-mode: wrap;&quot;&gt;jednotka&lt;/span&gt;&lt;/div&gt;" style="text;html=1;resizable=1;points=[];autosize=0;align=center;verticalAlign=middle;spacingTop=0;fontSize=20;spacing=0;resizeWidth=1;resizeHeight=1;labelPosition=center;verticalLabelPosition=middle;" parent="MdcfMWbTVEy-9bZ3t4bT-55" vertex="1">
          <mxGeometry x="37.56249999999999" width="75.12499999999999" height="148.125" as="geometry" />
        </mxCell>
        <mxCell id="MdcfMWbTVEy-9bZ3t4bT-58" value="" style="group" parent="MdcfMWbTVEy-9bZ3t4bT-55" vertex="1" connectable="0">
          <mxGeometry x="45.12999999999988" y="-30" width="60" height="60" as="geometry" />
        </mxCell>
        <mxCell id="MdcfMWbTVEy-9bZ3t4bT-59" value="&lt;span style=&quot;font-size: 13px&quot;&gt;&lt;br&gt;&lt;/span&gt;" style="ellipse;aspect=fixed;rounded=0;strokeColor=#000000;strokeWidth=2;fillColor=default;fontSize=12;verticalAlign=top;whiteSpace=wrap;html=1;labelPadding=0;noLabel=0;horizontal=1;labelPosition=center;verticalLabelPosition=bottom;align=center;spacing=-30;spacingRight=0;spacingTop=25;resizable=1;movable=1;rotatable=1;snapToPoint=1;cloneable=0;pointerEvents=0;recursiveResize=0;expand=0;editable=1;allowArrows=0;deletable=1;connectable=1;" parent="MdcfMWbTVEy-9bZ3t4bT-58" vertex="1">
          <mxGeometry width="60" height="60" as="geometry" />
        </mxCell>
        <mxCell id="MdcfMWbTVEy-9bZ3t4bT-60" value="&lt;font style=&quot;font-size: 12px&quot;&gt;&lt;font style=&quot;font-size: 12px&quot;&gt;TK03&lt;/font&gt;&lt;br style=&quot;font-size: 12px&quot;&gt;&lt;/font&gt;" style="rhombus;whiteSpace=wrap;html=1;rounded=0;strokeColor=#FF6666;strokeWidth=2;fillColor=none;fontSize=12;aspect=fixed;resizable=1;rotatable=1;connectable=1;allowArrows=0;recursiveResize=1;movable=1;deletable=1;editable=1;" parent="MdcfMWbTVEy-9bZ3t4bT-58" vertex="1">
          <mxGeometry x="2" y="2" width="56" height="56" as="geometry" />
        </mxCell>
        <mxCell id="MdcfMWbTVEy-9bZ3t4bT-64" value="" style="endArrow=none;html=1;strokeWidth=2;fontSize=12;exitX=0.5;exitY=0;exitDx=0;exitDy=0;rounded=0;startSize=8;endSize=8;edgeStyle=orthogonalEdgeStyle;" parent="1" source="MdcfMWbTVEy-9bZ3t4bT-48" target="MdcfMWbTVEy-9bZ3t4bT-21" edge="1">
          <mxGeometry width="50" height="50" relative="1" as="geometry">
            <mxPoint x="270.62" y="-239" as="sourcePoint" />
            <mxPoint x="308.62" y="-238.82999999999993" as="targetPoint" />
            <Array as="points">
              <mxPoint x="125" y="-432" />
              <mxPoint x="-100" y="-432" />
            </Array>
          </mxGeometry>
        </mxCell>
        <mxCell id="MdcfMWbTVEy-9bZ3t4bT-72" value="" style="group" parent="1" vertex="1" connectable="0">
          <mxGeometry x="-174" y="359" width="150.25" height="150" as="geometry" />
        </mxCell>
        <mxCell id="MdcfMWbTVEy-9bZ3t4bT-73" value="&lt;span style=&quot;font-size: 13px;&quot;&gt;AR5&lt;/span&gt;" style="shape=stencil(tZThDoIgFIWfhr8NZD1Ao3oP1GsyDRxS1tt3BdvC1LWmm2O75+h3z4Ar4aItZQMkoSXhR5IkjFJcse5GtWwbyFwQ79IqmdYQnNZZU0GncjcwlC7BKte7/EToAd/pHy4yozVClNFt5Hz4CJNK47f0EWBD+2dUNci/ggM7hPTq+Xfmbr8BlW2RNGa+c6+bdCVqnJVtclLrUNmfTC5QmbvEXKQyqy7W3HQ+mcT287N8r8dDNxrKiTQzPbkojIWFMIWq6zC4cxs37fqmX2yvhj+JF14=);whiteSpace=wrap;html=1;strokeWidth=2;spacingTop=0;verticalAlign=top;spacingBottom=0;spacing=0;labelPosition=center;verticalLabelPosition=bottom;align=center;" parent="MdcfMWbTVEy-9bZ3t4bT-72" vertex="1">
          <mxGeometry width="150.24999999999997" height="148.125" as="geometry" />
        </mxCell>
        <mxCell id="MdcfMWbTVEy-9bZ3t4bT-74" value="&lt;span style=&quot;font-size: 13px; text-wrap-mode: wrap;&quot;&gt;Komunikační&lt;/span&gt;&lt;div&gt;&lt;span style=&quot;font-size: 13px; text-wrap-mode: wrap;&quot;&gt;jednotka&lt;/span&gt;&lt;/div&gt;" style="text;html=1;resizable=1;points=[];autosize=0;align=center;verticalAlign=middle;spacingTop=0;fontSize=20;spacing=0;resizeWidth=1;resizeHeight=1;labelPosition=center;verticalLabelPosition=middle;" parent="MdcfMWbTVEy-9bZ3t4bT-72" vertex="1">
          <mxGeometry x="37.56249999999999" width="75.12499999999999" height="148.125" as="geometry" />
        </mxCell>
        <mxCell id="MdcfMWbTVEy-9bZ3t4bT-75" value="" style="group" parent="MdcfMWbTVEy-9bZ3t4bT-72" vertex="1" connectable="0">
          <mxGeometry x="45.12999999999988" y="-30" width="60" height="60" as="geometry" />
        </mxCell>
        <mxCell id="MdcfMWbTVEy-9bZ3t4bT-76" value="&lt;span style=&quot;font-size: 13px&quot;&gt;&lt;br&gt;&lt;/span&gt;" style="ellipse;aspect=fixed;rounded=0;strokeColor=#000000;strokeWidth=2;fillColor=default;fontSize=12;verticalAlign=top;whiteSpace=wrap;html=1;labelPadding=0;noLabel=0;horizontal=1;labelPosition=center;verticalLabelPosition=bottom;align=center;spacing=-30;spacingRight=0;spacingTop=25;resizable=1;movable=1;rotatable=1;snapToPoint=1;cloneable=0;pointerEvents=0;recursiveResize=0;expand=0;editable=1;allowArrows=0;deletable=1;connectable=1;" parent="MdcfMWbTVEy-9bZ3t4bT-75" vertex="1">
          <mxGeometry width="60" height="60" as="geometry" />
        </mxCell>
        <mxCell id="MdcfMWbTVEy-9bZ3t4bT-77" value="&lt;font style=&quot;font-size: 12px&quot;&gt;&lt;font style=&quot;font-size: 12px&quot;&gt;TK04&lt;/font&gt;&lt;br style=&quot;font-size: 12px&quot;&gt;&lt;/font&gt;" style="rhombus;whiteSpace=wrap;html=1;rounded=0;strokeColor=#FF6666;strokeWidth=2;fillColor=none;fontSize=12;aspect=fixed;resizable=1;rotatable=1;connectable=1;allowArrows=0;recursiveResize=1;movable=1;deletable=1;editable=1;" parent="MdcfMWbTVEy-9bZ3t4bT-75" vertex="1">
          <mxGeometry x="2" y="2" width="56" height="56" as="geometry" />
        </mxCell>
        <mxCell id="MdcfMWbTVEy-9bZ3t4bT-39" value="" style="group" parent="1" vertex="1" connectable="0">
          <mxGeometry x="-173.38" y="107" width="149" height="149" as="geometry" />
        </mxCell>
        <mxCell id="MdcfMWbTVEy-9bZ3t4bT-40" value="&lt;font style=&quot;font-size: 13px&quot;&gt;CAR4&lt;/font&gt;" style="shape=stencil(tZThDoIgFIWfhr8NZD1Ao3oP1GsyDRxS1tt3BdvC1LWmm2O75+h3z4Ar4aItZQMkoSXhR5IkjFJcse5GtWwbyFwQ79IqmdYQnNZZU0GncjcwlC7BKte7/EToAd/pHy4yozVClNFt5Hz4CJNK47f0EWBD+2dUNci/ggM7hPTq+Xfmbr8BlW2RNGa+c6+bdCVqnJVtclLrUNmfTC5QmbvEXKQyqy7W3HQ+mcT287N8r8dDNxrKiTQzPbkojIWFMIWq6zC4cxs37fqmX2yvhj+JF14=);whiteSpace=wrap;html=1;strokeWidth=2;spacingTop=0;verticalAlign=top;spacingBottom=0;spacing=0;labelPosition=center;verticalLabelPosition=bottom;align=center;fillColor=#B3B3B3;" parent="MdcfMWbTVEy-9bZ3t4bT-39" vertex="1">
          <mxGeometry width="149" height="147.13750000000002" as="geometry" />
        </mxCell>
        <mxCell id="MdcfMWbTVEy-9bZ3t4bT-41" value="&lt;span style=&quot;font-size: 13px; text-wrap-mode: wrap;&quot;&gt;Subjekt&amp;nbsp;&lt;/span&gt;&lt;div&gt;&lt;span style=&quot;font-size: 13px; text-wrap-mode: wrap;&quot;&gt;údajů&lt;/span&gt;&lt;/div&gt;" style="text;html=1;resizable=1;points=[];autosize=0;align=center;verticalAlign=middle;spacingTop=0;fontSize=20;spacing=0;resizeWidth=1;resizeHeight=1;labelPosition=center;verticalLabelPosition=middle;" parent="MdcfMWbTVEy-9bZ3t4bT-39" vertex="1">
          <mxGeometry x="37.25" width="74.5" height="147.13750000000002" as="geometry" />
        </mxCell>
        <mxCell id="MdcfMWbTVEy-9bZ3t4bT-81" value="" style="endArrow=none;html=1;strokeWidth=2;fontSize=12;entryX=0.5;entryY=0;entryDx=0;entryDy=0;rounded=0;startSize=8;endSize=8;curved=1;" parent="1" source="MdcfMWbTVEy-9bZ3t4bT-41" target="MdcfMWbTVEy-9bZ3t4bT-77" edge="1">
          <mxGeometry width="50" height="50" relative="1" as="geometry">
            <mxPoint x="-112.88" y="93" as="sourcePoint" />
            <mxPoint x="-74.88" y="93.17000000000007" as="targetPoint" />
          </mxGeometry>
        </mxCell>
        <mxCell id="j_ACmnEql-yLn4014SHD-8" value="0..1" style="edgeLabel;html=1;align=center;verticalAlign=middle;resizable=0;points=[];fontSize=12;" parent="MdcfMWbTVEy-9bZ3t4bT-81" vertex="1" connectable="0">
          <mxGeometry x="0.0219" y="-1" relative="1" as="geometry">
            <mxPoint x="-16" y="22" as="offset" />
          </mxGeometry>
        </mxCell>
        <mxCell id="MdcfMWbTVEy-9bZ3t4bT-82" value="" style="group" parent="1" vertex="1" connectable="0">
          <mxGeometry x="277.63" y="107" width="149" height="149" as="geometry" />
        </mxCell>
        <mxCell id="MdcfMWbTVEy-9bZ3t4bT-83" value="&lt;font style=&quot;font-size: 13px&quot;&gt;CAR6&lt;/font&gt;" style="shape=stencil(tZThDoIgFIWfhr8NZD1Ao3oP1GsyDRxS1tt3BdvC1LWmm2O75+h3z4Ar4aItZQMkoSXhR5IkjFJcse5GtWwbyFwQ79IqmdYQnNZZU0GncjcwlC7BKte7/EToAd/pHy4yozVClNFt5Hz4CJNK47f0EWBD+2dUNci/ggM7hPTq+Xfmbr8BlW2RNGa+c6+bdCVqnJVtclLrUNmfTC5QmbvEXKQyqy7W3HQ+mcT287N8r8dDNxrKiTQzPbkojIWFMIWq6zC4cxs37fqmX2yvhj+JF14=);whiteSpace=wrap;html=1;strokeWidth=2;spacingTop=0;verticalAlign=top;spacingBottom=0;spacing=0;labelPosition=center;verticalLabelPosition=bottom;align=center;fillColor=#B3B3B3;" parent="MdcfMWbTVEy-9bZ3t4bT-82" vertex="1">
          <mxGeometry width="149" height="147.13750000000002" as="geometry" />
        </mxCell>
        <mxCell id="MdcfMWbTVEy-9bZ3t4bT-84" value="&lt;span style=&quot;font-size: 13px; text-wrap-mode: wrap;&quot;&gt;Žadatel&lt;/span&gt;" style="text;html=1;resizable=1;points=[];autosize=0;align=center;verticalAlign=middle;spacingTop=0;fontSize=20;spacing=0;resizeWidth=1;resizeHeight=1;labelPosition=center;verticalLabelPosition=middle;" parent="MdcfMWbTVEy-9bZ3t4bT-82" vertex="1">
          <mxGeometry x="37.25" width="74.5" height="147.13750000000002" as="geometry" />
        </mxCell>
        <mxCell id="MdcfMWbTVEy-9bZ3t4bT-85" value="" style="group" parent="1" vertex="1" connectable="0">
          <mxGeometry x="277.63" y="359" width="150.25" height="150" as="geometry" />
        </mxCell>
        <mxCell id="MdcfMWbTVEy-9bZ3t4bT-86" value="&lt;span style=&quot;font-size: 13px;&quot;&gt;AR7&lt;/span&gt;" style="shape=stencil(tZThDoIgFIWfhr8NZD1Ao3oP1GsyDRxS1tt3BdvC1LWmm2O75+h3z4Ar4aItZQMkoSXhR5IkjFJcse5GtWwbyFwQ79IqmdYQnNZZU0GncjcwlC7BKte7/EToAd/pHy4yozVClNFt5Hz4CJNK47f0EWBD+2dUNci/ggM7hPTq+Xfmbr8BlW2RNGa+c6+bdCVqnJVtclLrUNmfTC5QmbvEXKQyqy7W3HQ+mcT287N8r8dDNxrKiTQzPbkojIWFMIWq6zC4cxs37fqmX2yvhj+JF14=);whiteSpace=wrap;html=1;strokeWidth=2;spacingTop=0;verticalAlign=top;spacingBottom=0;spacing=0;labelPosition=center;verticalLabelPosition=bottom;align=center;" parent="MdcfMWbTVEy-9bZ3t4bT-85" vertex="1">
          <mxGeometry width="150.24999999999997" height="148.125" as="geometry" />
        </mxCell>
        <mxCell id="MdcfMWbTVEy-9bZ3t4bT-87" value="&lt;span style=&quot;font-size: 13px; text-wrap-mode: wrap;&quot;&gt;Přijímací&lt;/span&gt;&lt;div&gt;&lt;span style=&quot;font-size: 13px; text-wrap-mode: wrap;&quot;&gt;jednotka&lt;/span&gt;&lt;/div&gt;" style="text;html=1;resizable=1;points=[];autosize=0;align=center;verticalAlign=middle;spacingTop=0;fontSize=20;spacing=0;resizeWidth=1;resizeHeight=1;labelPosition=center;verticalLabelPosition=middle;" parent="MdcfMWbTVEy-9bZ3t4bT-85" vertex="1">
          <mxGeometry x="37.56249999999999" width="75.12499999999999" height="148.125" as="geometry" />
        </mxCell>
        <mxCell id="MdcfMWbTVEy-9bZ3t4bT-88" value="" style="group" parent="MdcfMWbTVEy-9bZ3t4bT-85" vertex="1" connectable="0">
          <mxGeometry x="45.12999999999988" y="-30" width="60" height="60" as="geometry" />
        </mxCell>
        <mxCell id="MdcfMWbTVEy-9bZ3t4bT-89" value="&lt;span style=&quot;font-size: 13px&quot;&gt;&lt;br&gt;&lt;/span&gt;" style="ellipse;aspect=fixed;rounded=0;strokeColor=#000000;strokeWidth=2;fillColor=default;fontSize=12;verticalAlign=top;whiteSpace=wrap;html=1;labelPadding=0;noLabel=0;horizontal=1;labelPosition=center;verticalLabelPosition=bottom;align=center;spacing=-30;spacingRight=0;spacingTop=25;resizable=1;movable=1;rotatable=1;snapToPoint=1;cloneable=0;pointerEvents=0;recursiveResize=0;expand=0;editable=1;allowArrows=0;deletable=1;connectable=1;" parent="MdcfMWbTVEy-9bZ3t4bT-88" vertex="1">
          <mxGeometry width="60" height="60" as="geometry" />
        </mxCell>
        <mxCell id="MdcfMWbTVEy-9bZ3t4bT-90" value="&lt;font style=&quot;font-size: 12px&quot;&gt;&lt;font style=&quot;font-size: 12px&quot;&gt;TK05&lt;/font&gt;&lt;br style=&quot;font-size: 12px&quot;&gt;&lt;/font&gt;" style="rhombus;whiteSpace=wrap;html=1;rounded=0;strokeColor=#FF6666;strokeWidth=2;fillColor=none;fontSize=12;aspect=fixed;resizable=1;rotatable=1;connectable=1;allowArrows=0;recursiveResize=1;movable=1;deletable=1;editable=1;" parent="MdcfMWbTVEy-9bZ3t4bT-88" vertex="1">
          <mxGeometry x="2" y="2" width="56" height="56" as="geometry" />
        </mxCell>
        <mxCell id="MdcfMWbTVEy-9bZ3t4bT-93" value="" style="endArrow=none;html=1;strokeWidth=2;fontSize=12;entryX=0.5;entryY=0;entryDx=0;entryDy=0;rounded=0;startSize=8;endSize=8;curved=1;" parent="1" source="MdcfMWbTVEy-9bZ3t4bT-84" target="MdcfMWbTVEy-9bZ3t4bT-90" edge="1">
          <mxGeometry width="50" height="50" relative="1" as="geometry">
            <mxPoint x="321.13" y="346" as="sourcePoint" />
            <mxPoint x="359.13" y="346.1700000000001" as="targetPoint" />
          </mxGeometry>
        </mxCell>
        <mxCell id="j_ACmnEql-yLn4014SHD-9" value="1..n" style="edgeLabel;html=1;align=center;verticalAlign=middle;resizable=0;points=[];fontSize=12;" parent="MdcfMWbTVEy-9bZ3t4bT-93" vertex="1" connectable="0">
          <mxGeometry x="0.1442" y="-2" relative="1" as="geometry">
            <mxPoint x="15" y="11" as="offset" />
          </mxGeometry>
        </mxCell>
        <mxCell id="MdcfMWbTVEy-9bZ3t4bT-94" value="" style="group" parent="1" vertex="1" connectable="0">
          <mxGeometry x="50.88" y="359" width="150.25" height="150" as="geometry" />
        </mxCell>
        <mxCell id="MdcfMWbTVEy-9bZ3t4bT-95" value="&lt;span style=&quot;font-size: 13px;&quot;&gt;AR8&lt;/span&gt;" style="shape=stencil(tZThDoIgFIWfhr8NZD1Ao3oP1GsyDRxS1tt3BdvC1LWmm2O75+h3z4Ar4aItZQMkoSXhR5IkjFJcse5GtWwbyFwQ79IqmdYQnNZZU0GncjcwlC7BKte7/EToAd/pHy4yozVClNFt5Hz4CJNK47f0EWBD+2dUNci/ggM7hPTq+Xfmbr8BlW2RNGa+c6+bdCVqnJVtclLrUNmfTC5QmbvEXKQyqy7W3HQ+mcT287N8r8dDNxrKiTQzPbkojIWFMIWq6zC4cxs37fqmX2yvhj+JF14=);whiteSpace=wrap;html=1;strokeWidth=2;spacingTop=0;verticalAlign=top;spacingBottom=0;spacing=0;labelPosition=center;verticalLabelPosition=bottom;align=center;" parent="MdcfMWbTVEy-9bZ3t4bT-94" vertex="1">
          <mxGeometry width="150.24999999999997" height="148.125" as="geometry" />
        </mxCell>
        <mxCell id="MdcfMWbTVEy-9bZ3t4bT-96" value="&lt;span style=&quot;font-size: 13px; text-wrap-mode: wrap;&quot;&gt;Ověřující&amp;nbsp;&lt;/span&gt;&lt;div&gt;&lt;span style=&quot;font-size: 13px; text-wrap-mode: wrap;&quot;&gt;jednotka&lt;/span&gt;&lt;/div&gt;" style="text;html=1;resizable=1;points=[];autosize=0;align=center;verticalAlign=middle;spacingTop=0;fontSize=20;spacing=0;resizeWidth=1;resizeHeight=1;labelPosition=center;verticalLabelPosition=middle;" parent="MdcfMWbTVEy-9bZ3t4bT-94" vertex="1">
          <mxGeometry x="37.56249999999999" width="75.12499999999999" height="148.125" as="geometry" />
        </mxCell>
        <mxCell id="MdcfMWbTVEy-9bZ3t4bT-97" value="" style="group" parent="MdcfMWbTVEy-9bZ3t4bT-94" vertex="1" connectable="0">
          <mxGeometry x="122.11999999999988" y="45" width="60" height="60" as="geometry" />
        </mxCell>
        <mxCell id="MdcfMWbTVEy-9bZ3t4bT-98" value="&lt;span style=&quot;font-size: 13px&quot;&gt;&lt;br&gt;&lt;/span&gt;" style="ellipse;aspect=fixed;rounded=0;strokeColor=#000000;strokeWidth=2;fillColor=default;fontSize=12;verticalAlign=top;whiteSpace=wrap;html=1;labelPadding=0;noLabel=0;horizontal=1;labelPosition=center;verticalLabelPosition=bottom;align=center;spacing=-30;spacingRight=0;spacingTop=25;resizable=1;movable=1;rotatable=1;snapToPoint=1;cloneable=0;pointerEvents=0;recursiveResize=0;expand=0;editable=1;allowArrows=0;deletable=1;connectable=1;" parent="MdcfMWbTVEy-9bZ3t4bT-97" vertex="1">
          <mxGeometry width="60" height="60" as="geometry" />
        </mxCell>
        <mxCell id="MdcfMWbTVEy-9bZ3t4bT-99" value="&lt;font style=&quot;font-size: 12px&quot;&gt;&lt;font style=&quot;font-size: 12px&quot;&gt;TK06&lt;/font&gt;&lt;br style=&quot;font-size: 12px&quot;&gt;&lt;/font&gt;" style="rhombus;whiteSpace=wrap;html=1;rounded=0;strokeColor=#FF6666;strokeWidth=2;fillColor=none;fontSize=12;aspect=fixed;resizable=1;rotatable=1;connectable=1;allowArrows=0;recursiveResize=1;movable=1;deletable=1;editable=1;" parent="MdcfMWbTVEy-9bZ3t4bT-97" vertex="1">
          <mxGeometry x="2" y="2" width="56" height="56" as="geometry" />
        </mxCell>
        <mxCell id="MdcfMWbTVEy-9bZ3t4bT-100" value="" style="group" parent="1" vertex="1" connectable="0">
          <mxGeometry x="50.879999999999995" y="640" width="180.1199999999999" height="150" as="geometry" />
        </mxCell>
        <mxCell id="MdcfMWbTVEy-9bZ3t4bT-101" value="&lt;span style=&quot;font-size: 13px;&quot;&gt;AR9&lt;/span&gt;" style="shape=stencil(tZThDoIgFIWfhr8NZD1Ao3oP1GsyDRxS1tt3BdvC1LWmm2O75+h3z4Ar4aItZQMkoSXhR5IkjFJcse5GtWwbyFwQ79IqmdYQnNZZU0GncjcwlC7BKte7/EToAd/pHy4yozVClNFt5Hz4CJNK47f0EWBD+2dUNci/ggM7hPTq+Xfmbr8BlW2RNGa+c6+bdCVqnJVtclLrUNmfTC5QmbvEXKQyqy7W3HQ+mcT287N8r8dDNxrKiTQzPbkojIWFMIWq6zC4cxs37fqmX2yvhj+JF14=);whiteSpace=wrap;html=1;strokeWidth=2;spacingTop=0;verticalAlign=top;spacingBottom=0;spacing=0;labelPosition=center;verticalLabelPosition=bottom;align=center;" parent="MdcfMWbTVEy-9bZ3t4bT-100" vertex="1">
          <mxGeometry width="150.24999999999997" height="148.125" as="geometry" />
        </mxCell>
        <mxCell id="MdcfMWbTVEy-9bZ3t4bT-102" value="&lt;span style=&quot;font-size: 13px; text-wrap-mode: wrap;&quot;&gt;Posuzující&lt;/span&gt;&lt;div&gt;&lt;span style=&quot;font-size: 13px; text-wrap-mode: wrap;&quot;&gt;jednotka&lt;/span&gt;&lt;/div&gt;" style="text;html=1;resizable=1;points=[];autosize=0;align=center;verticalAlign=middle;spacingTop=0;fontSize=20;spacing=0;resizeWidth=1;resizeHeight=1;labelPosition=center;verticalLabelPosition=middle;" parent="MdcfMWbTVEy-9bZ3t4bT-100" vertex="1">
          <mxGeometry x="37.56249999999999" width="75.12499999999999" height="148.125" as="geometry" />
        </mxCell>
        <mxCell id="MdcfMWbTVEy-9bZ3t4bT-103" value="" style="group" parent="MdcfMWbTVEy-9bZ3t4bT-100" vertex="1" connectable="0">
          <mxGeometry x="122.11999999999988" y="31" width="60" height="60" as="geometry" />
        </mxCell>
        <mxCell id="MdcfMWbTVEy-9bZ3t4bT-104" value="&lt;span style=&quot;font-size: 13px&quot;&gt;&lt;br&gt;&lt;/span&gt;" style="ellipse;aspect=fixed;rounded=0;strokeColor=#000000;strokeWidth=2;fillColor=default;fontSize=12;verticalAlign=top;whiteSpace=wrap;html=1;labelPadding=0;noLabel=0;horizontal=1;labelPosition=center;verticalLabelPosition=bottom;align=center;spacing=-30;spacingRight=0;spacingTop=25;resizable=1;movable=1;rotatable=1;snapToPoint=1;cloneable=0;pointerEvents=0;recursiveResize=0;expand=0;editable=1;allowArrows=0;deletable=1;connectable=1;" parent="MdcfMWbTVEy-9bZ3t4bT-103" vertex="1">
          <mxGeometry width="60" height="60" as="geometry" />
        </mxCell>
        <mxCell id="MdcfMWbTVEy-9bZ3t4bT-105" value="&lt;font style=&quot;font-size: 12px&quot;&gt;&lt;font style=&quot;font-size: 12px&quot;&gt;TK07&lt;/font&gt;&lt;br style=&quot;font-size: 12px&quot;&gt;&lt;/font&gt;" style="rhombus;whiteSpace=wrap;html=1;rounded=0;strokeColor=#FF6666;strokeWidth=2;fillColor=none;fontSize=12;aspect=fixed;resizable=1;rotatable=1;connectable=1;allowArrows=0;recursiveResize=1;movable=1;deletable=1;editable=1;" parent="MdcfMWbTVEy-9bZ3t4bT-100" vertex="1">
          <mxGeometry x="124.11999999999988" y="35" width="56" height="56" as="geometry" />
        </mxCell>
        <mxCell id="MdcfMWbTVEy-9bZ3t4bT-112" value="" style="group" parent="1" vertex="1" connectable="0">
          <mxGeometry x="458" y="640" width="150.25" height="150" as="geometry" />
        </mxCell>
        <mxCell id="MdcfMWbTVEy-9bZ3t4bT-113" value="&lt;span style=&quot;font-size: 13px;&quot;&gt;AR10&lt;/span&gt;" style="shape=stencil(tZThDoIgFIWfhr8NZD1Ao3oP1GsyDRxS1tt3BdvC1LWmm2O75+h3z4Ar4aItZQMkoSXhR5IkjFJcse5GtWwbyFwQ79IqmdYQnNZZU0GncjcwlC7BKte7/EToAd/pHy4yozVClNFt5Hz4CJNK47f0EWBD+2dUNci/ggM7hPTq+Xfmbr8BlW2RNGa+c6+bdCVqnJVtclLrUNmfTC5QmbvEXKQyqy7W3HQ+mcT287N8r8dDNxrKiTQzPbkojIWFMIWq6zC4cxs37fqmX2yvhj+JF14=);whiteSpace=wrap;html=1;strokeWidth=2;spacingTop=0;verticalAlign=top;spacingBottom=0;spacing=0;labelPosition=center;verticalLabelPosition=bottom;align=center;" parent="MdcfMWbTVEy-9bZ3t4bT-112" vertex="1">
          <mxGeometry width="150.24999999999997" height="148.125" as="geometry" />
        </mxCell>
        <mxCell id="MdcfMWbTVEy-9bZ3t4bT-114" value="&lt;span style=&quot;font-size: 13px; text-wrap-mode: wrap;&quot;&gt;Realizační&amp;nbsp;&lt;/span&gt;&lt;div&gt;&lt;span style=&quot;font-size: 13px; text-wrap-mode: wrap;&quot;&gt;jednotka&lt;/span&gt;&lt;/div&gt;" style="text;html=1;resizable=1;points=[];autosize=0;align=center;verticalAlign=middle;spacingTop=0;fontSize=20;spacing=0;resizeWidth=1;resizeHeight=1;labelPosition=center;verticalLabelPosition=middle;" parent="MdcfMWbTVEy-9bZ3t4bT-112" vertex="1">
          <mxGeometry x="37.56249999999999" width="75.12499999999999" height="148.125" as="geometry" />
        </mxCell>
        <mxCell id="MdcfMWbTVEy-9bZ3t4bT-115" value="" style="group" parent="MdcfMWbTVEy-9bZ3t4bT-112" vertex="1" connectable="0">
          <mxGeometry x="45.12999999999988" y="-30" width="60" height="60" as="geometry" />
        </mxCell>
        <mxCell id="MdcfMWbTVEy-9bZ3t4bT-116" value="&lt;span style=&quot;font-size: 13px&quot;&gt;&lt;br&gt;&lt;/span&gt;" style="ellipse;aspect=fixed;rounded=0;strokeColor=#000000;strokeWidth=2;fillColor=default;fontSize=12;verticalAlign=top;whiteSpace=wrap;html=1;labelPadding=0;noLabel=0;horizontal=1;labelPosition=center;verticalLabelPosition=bottom;align=center;spacing=-30;spacingRight=0;spacingTop=25;resizable=1;movable=1;rotatable=1;snapToPoint=1;cloneable=0;pointerEvents=0;recursiveResize=0;expand=0;editable=1;allowArrows=0;deletable=1;connectable=1;" parent="MdcfMWbTVEy-9bZ3t4bT-115" vertex="1">
          <mxGeometry width="60" height="60" as="geometry" />
        </mxCell>
        <mxCell id="MdcfMWbTVEy-9bZ3t4bT-117" value="&lt;font style=&quot;font-size: 12px&quot;&gt;&lt;font style=&quot;font-size: 12px&quot;&gt;TK08&lt;/font&gt;&lt;br style=&quot;font-size: 12px&quot;&gt;&lt;/font&gt;" style="rhombus;whiteSpace=wrap;html=1;rounded=0;strokeColor=#FF6666;strokeWidth=2;fillColor=none;fontSize=12;aspect=fixed;resizable=1;rotatable=1;connectable=1;allowArrows=0;recursiveResize=1;movable=1;deletable=1;editable=1;" parent="MdcfMWbTVEy-9bZ3t4bT-115" vertex="1">
          <mxGeometry x="2" y="2" width="56" height="56" as="geometry" />
        </mxCell>
        <mxCell id="MdcfMWbTVEy-9bZ3t4bT-118" value="" style="group" parent="1" vertex="1" connectable="0">
          <mxGeometry x="640" y="640" width="150.25" height="150" as="geometry" />
        </mxCell>
        <mxCell id="MdcfMWbTVEy-9bZ3t4bT-119" value="&lt;span style=&quot;font-size: 13px;&quot;&gt;AR11&lt;/span&gt;" style="shape=stencil(tZThDoIgFIWfhr8NZD1Ao3oP1GsyDRxS1tt3BdvC1LWmm2O75+h3z4Ar4aItZQMkoSXhR5IkjFJcse5GtWwbyFwQ79IqmdYQnNZZU0GncjcwlC7BKte7/EToAd/pHy4yozVClNFt5Hz4CJNK47f0EWBD+2dUNci/ggM7hPTq+Xfmbr8BlW2RNGa+c6+bdCVqnJVtclLrUNmfTC5QmbvEXKQyqy7W3HQ+mcT287N8r8dDNxrKiTQzPbkojIWFMIWq6zC4cxs37fqmX2yvhj+JF14=);whiteSpace=wrap;html=1;strokeWidth=2;spacingTop=0;verticalAlign=top;spacingBottom=0;spacing=0;labelPosition=center;verticalLabelPosition=bottom;align=center;" parent="MdcfMWbTVEy-9bZ3t4bT-118" vertex="1">
          <mxGeometry width="150.24999999999997" height="148.125" as="geometry" />
        </mxCell>
        <mxCell id="MdcfMWbTVEy-9bZ3t4bT-120" value="&lt;span style=&quot;font-size: 13px; text-wrap-mode: wrap;&quot;&gt;Notifikační&lt;/span&gt;&lt;div&gt;&lt;span style=&quot;font-size: 13px; text-wrap-mode: wrap;&quot;&gt;jednotka&lt;/span&gt;&lt;/div&gt;" style="text;html=1;resizable=1;points=[];autosize=0;align=center;verticalAlign=middle;spacingTop=0;fontSize=20;spacing=0;resizeWidth=1;resizeHeight=1;labelPosition=center;verticalLabelPosition=middle;" parent="MdcfMWbTVEy-9bZ3t4bT-118" vertex="1">
          <mxGeometry x="37.56249999999999" width="75.12499999999999" height="148.125" as="geometry" />
        </mxCell>
        <mxCell id="MdcfMWbTVEy-9bZ3t4bT-121" value="" style="group" parent="MdcfMWbTVEy-9bZ3t4bT-118" vertex="1" connectable="0">
          <mxGeometry x="45.12999999999988" y="-30" width="60" height="60" as="geometry" />
        </mxCell>
        <mxCell id="MdcfMWbTVEy-9bZ3t4bT-122" value="&lt;span style=&quot;font-size: 13px&quot;&gt;&lt;br&gt;&lt;/span&gt;" style="ellipse;aspect=fixed;rounded=0;strokeColor=#000000;strokeWidth=2;fillColor=default;fontSize=12;verticalAlign=top;whiteSpace=wrap;html=1;labelPadding=0;noLabel=0;horizontal=1;labelPosition=center;verticalLabelPosition=bottom;align=center;spacing=-30;spacingRight=0;spacingTop=25;resizable=1;movable=1;rotatable=1;snapToPoint=1;cloneable=0;pointerEvents=0;recursiveResize=0;expand=0;editable=1;allowArrows=0;deletable=1;connectable=1;" parent="MdcfMWbTVEy-9bZ3t4bT-121" vertex="1">
          <mxGeometry width="60" height="60" as="geometry" />
        </mxCell>
        <mxCell id="MdcfMWbTVEy-9bZ3t4bT-123" value="&lt;font style=&quot;font-size: 12px&quot;&gt;&lt;font style=&quot;font-size: 12px&quot;&gt;TK09&lt;/font&gt;&lt;br style=&quot;font-size: 12px&quot;&gt;&lt;/font&gt;" style="rhombus;whiteSpace=wrap;html=1;rounded=0;strokeColor=#FF6666;strokeWidth=2;fillColor=none;fontSize=12;aspect=fixed;resizable=1;rotatable=1;connectable=1;allowArrows=0;recursiveResize=1;movable=1;deletable=1;editable=1;" parent="MdcfMWbTVEy-9bZ3t4bT-121" vertex="1">
          <mxGeometry x="2" y="2" width="56" height="56" as="geometry" />
        </mxCell>
        <mxCell id="MdcfMWbTVEy-9bZ3t4bT-124" value="" style="endArrow=none;html=1;strokeWidth=2;fontSize=12;exitX=1;exitY=0.5;exitDx=0;exitDy=0;rounded=0;fontFamily=Helvetica;fontColor=default;resizable=1;startSize=8;endSize=8;entryX=0;entryY=0.5;entryDx=0;entryDy=0;edgeStyle=orthogonalEdgeStyle;" parent="1" source="MdcfMWbTVEy-9bZ3t4bT-98" target="MdcfMWbTVEy-9bZ3t4bT-86" edge="1">
          <mxGeometry width="50" height="50" relative="1" as="geometry">
            <mxPoint x="272" y="566" as="sourcePoint" />
            <mxPoint x="442" y="566" as="targetPoint" />
          </mxGeometry>
        </mxCell>
        <mxCell id="MdcfMWbTVEy-9bZ3t4bT-125" value="" style="edgeLabel;html=1;align=center;verticalAlign=middle;resizable=0;points=[];strokeColor=#000000;strokeWidth=2;spacingTop=0;spacing=0;fontFamily=Helvetica;fontSize=20;fontColor=default;fillColor=default;" parent="MdcfMWbTVEy-9bZ3t4bT-124" vertex="1" connectable="0">
          <mxGeometry x="-0.1261" y="-1" relative="1" as="geometry">
            <mxPoint x="6" y="29" as="offset" />
          </mxGeometry>
        </mxCell>
        <mxCell id="MdcfMWbTVEy-9bZ3t4bT-126" value="" style="endArrow=none;html=1;strokeWidth=2;fontSize=12;exitX=1;exitY=0.5;exitDx=0;exitDy=0;rounded=0;fontFamily=Helvetica;fontColor=default;resizable=1;startSize=8;endSize=8;edgeStyle=orthogonalEdgeStyle;" parent="1" source="MdcfMWbTVEy-9bZ3t4bT-105" edge="1">
          <mxGeometry width="50" height="50" relative="1" as="geometry">
            <mxPoint x="272" y="566" as="sourcePoint" />
            <mxPoint x="458" y="703" as="targetPoint" />
            <Array as="points">
              <mxPoint x="339" y="703" />
              <mxPoint x="339" y="703" />
            </Array>
          </mxGeometry>
        </mxCell>
        <mxCell id="MdcfMWbTVEy-9bZ3t4bT-127" value="" style="edgeLabel;html=1;align=center;verticalAlign=middle;resizable=0;points=[];strokeColor=#000000;strokeWidth=2;spacingTop=0;spacing=0;fontFamily=Helvetica;fontSize=20;fontColor=default;fillColor=default;" parent="MdcfMWbTVEy-9bZ3t4bT-126" vertex="1" connectable="0">
          <mxGeometry x="-0.1261" y="-1" relative="1" as="geometry">
            <mxPoint x="6" y="29" as="offset" />
          </mxGeometry>
        </mxCell>
        <mxCell id="MdcfMWbTVEy-9bZ3t4bT-128" value="" style="endArrow=none;html=1;strokeWidth=2;fontSize=12;entryX=0.5;entryY=0;entryDx=0;entryDy=0;rounded=0;startSize=8;endSize=8;edgeStyle=orthogonalEdgeStyle;exitX=1;exitY=1;exitDx=0;exitDy=0;" parent="1" source="MdcfMWbTVEy-9bZ3t4bT-86" target="MdcfMWbTVEy-9bZ3t4bT-116" edge="1">
          <mxGeometry width="50" height="50" relative="1" as="geometry">
            <mxPoint x="340" y="671" as="sourcePoint" />
            <mxPoint x="376" y="566.1700000000001" as="targetPoint" />
            <Array as="points">
              <mxPoint x="533" y="507" />
            </Array>
          </mxGeometry>
        </mxCell>
        <mxCell id="MdcfMWbTVEy-9bZ3t4bT-135" value="" style="endArrow=none;html=1;strokeWidth=2;fontSize=12;entryX=0.5;entryY=0;entryDx=0;entryDy=0;exitX=1;exitY=0;exitDx=0;exitDy=0;rounded=0;startSize=8;endSize=8;edgeStyle=orthogonalEdgeStyle;" parent="1" source="MdcfMWbTVEy-9bZ3t4bT-86" target="MdcfMWbTVEy-9bZ3t4bT-123" edge="1">
          <mxGeometry width="50" height="50" relative="1" as="geometry">
            <mxPoint x="331" y="532" as="sourcePoint" />
            <mxPoint x="369" y="532.1700000000001" as="targetPoint" />
            <Array as="points">
              <mxPoint x="428" y="397" />
              <mxPoint x="715" y="397" />
            </Array>
          </mxGeometry>
        </mxCell>
        <mxCell id="MdcfMWbTVEy-9bZ3t4bT-136" value="" style="endArrow=classic;dashed=1;html=1;rounded=0;strokeWidth=2;endFill=1;fontSize=12;startSize=8;endSize=8;exitX=0.5;exitY=1;exitDx=0;exitDy=0;entryX=0.5;entryY=0;entryDx=0;entryDy=0;edgeStyle=orthogonalEdgeStyle;" parent="1" source="MdcfMWbTVEy-9bZ3t4bT-99" target="MdcfMWbTVEy-9bZ3t4bT-117" edge="1">
          <mxGeometry width="50" height="50" relative="1" as="geometry">
            <mxPoint x="291" y="240" as="sourcePoint" />
            <mxPoint x="341" y="190" as="targetPoint" />
            <Array as="points">
              <mxPoint x="203" y="612" />
            </Array>
          </mxGeometry>
        </mxCell>
        <mxCell id="MdcfMWbTVEy-9bZ3t4bT-137" value="" style="endArrow=classic;dashed=1;html=1;rounded=0;strokeWidth=2;endFill=1;fontSize=12;startSize=8;endSize=8;curved=1;exitX=0.5;exitY=0;exitDx=0;exitDy=0;entryX=0.5;entryY=0;entryDx=0;entryDy=0;" parent="1" source="MdcfMWbTVEy-9bZ3t4bT-117" target="MdcfMWbTVEy-9bZ3t4bT-123" edge="1">
          <mxGeometry width="50" height="50" relative="1" as="geometry">
            <mxPoint x="563" y="441" as="sourcePoint" />
            <mxPoint x="613" y="391" as="targetPoint" />
          </mxGeometry>
        </mxCell>
        <mxCell id="MdcfMWbTVEy-9bZ3t4bT-143" value="" style="endArrow=none;dashed=1;html=1;rounded=0;strokeWidth=2;fontSize=12;startSize=8;endSize=8;exitX=1;exitY=0.5;exitDx=0;exitDy=0;entryX=0.5;entryY=1;entryDx=0;entryDy=0;edgeStyle=orthogonalEdgeStyle;" parent="1" source="MdcfMWbTVEy-9bZ3t4bT-77" target="MdcfMWbTVEy-9bZ3t4bT-50" edge="1">
          <mxGeometry width="50" height="50" relative="1" as="geometry">
            <mxPoint x="318" y="418" as="sourcePoint" />
            <mxPoint x="368" y="368" as="targetPoint" />
            <Array as="points">
              <mxPoint x="-71" y="302" />
              <mxPoint x="126" y="302" />
            </Array>
          </mxGeometry>
        </mxCell>
        <mxCell id="MdcfMWbTVEy-9bZ3t4bT-144" value="" style="endArrow=none;dashed=1;html=1;rounded=0;strokeWidth=2;fontSize=12;startSize=8;endSize=8;exitX=1;exitY=0.5;exitDx=0;exitDy=0;edgeStyle=orthogonalEdgeStyle;" parent="1" source="MdcfMWbTVEy-9bZ3t4bT-77" target="MdcfMWbTVEy-9bZ3t4bT-56" edge="1">
          <mxGeometry width="50" height="50" relative="1" as="geometry">
            <mxPoint x="318" y="418" as="sourcePoint" />
            <mxPoint x="368" y="368" as="targetPoint" />
            <Array as="points">
              <mxPoint x="-71" y="322" />
              <mxPoint x="232" y="322" />
              <mxPoint x="232" y="-39" />
            </Array>
          </mxGeometry>
        </mxCell>
        <mxCell id="j_ACmnEql-yLn4014SHD-1" value="" style="endArrow=none;html=1;strokeWidth=2;fontSize=12;exitX=0.5;exitY=0;exitDx=0;exitDy=0;rounded=0;fontFamily=Helvetica;fontColor=default;resizable=1;startSize=8;endSize=8;curved=1;" parent="1" source="MdcfMWbTVEy-9bZ3t4bT-54" target="MdcfMWbTVEy-9bZ3t4bT-4" edge="1">
          <mxGeometry width="50" height="50" relative="1" as="geometry">
            <mxPoint x="132" y="-48" as="sourcePoint" />
            <mxPoint x="302" y="-48" as="targetPoint" />
          </mxGeometry>
        </mxCell>
        <mxCell id="j_ACmnEql-yLn4014SHD-2" value="" style="edgeLabel;html=1;align=center;verticalAlign=middle;resizable=0;points=[];strokeColor=#000000;strokeWidth=2;spacingTop=0;spacing=0;fontFamily=Helvetica;fontSize=20;fontColor=default;fillColor=default;" parent="j_ACmnEql-yLn4014SHD-1" vertex="1" connectable="0">
          <mxGeometry x="-0.1261" y="-1" relative="1" as="geometry">
            <mxPoint x="6" y="29" as="offset" />
          </mxGeometry>
        </mxCell>
        <mxCell id="j_ACmnEql-yLn4014SHD-6" value="1..n" style="edgeLabel;html=1;align=center;verticalAlign=middle;resizable=0;points=[];fontSize=12;" parent="j_ACmnEql-yLn4014SHD-1" vertex="1" connectable="0">
          <mxGeometry x="-0.0278" y="-2" relative="1" as="geometry">
            <mxPoint x="13" y="27" as="offset" />
          </mxGeometry>
        </mxCell>
        <mxCell id="j_ACmnEql-yLn4014SHD-3" value="" style="endArrow=none;html=1;strokeWidth=2;fontSize=12;rounded=0;fontFamily=Helvetica;fontColor=default;resizable=1;startSize=8;endSize=8;entryX=0.5;entryY=0;entryDx=0;entryDy=0;exitX=1.003;exitY=0.598;exitDx=0;exitDy=0;exitPerimeter=0;edgeStyle=orthogonalEdgeStyle;" parent="1" source="MdcfMWbTVEy-9bZ3t4bT-3" target="MdcfMWbTVEy-9bZ3t4bT-60" edge="1">
          <mxGeometry width="50" height="50" relative="1" as="geometry">
            <mxPoint x="132" y="-48" as="sourcePoint" />
            <mxPoint x="302" y="-48" as="targetPoint" />
            <Array as="points">
              <mxPoint x="352" y="-305" />
            </Array>
          </mxGeometry>
        </mxCell>
        <mxCell id="j_ACmnEql-yLn4014SHD-4" value="" style="edgeLabel;html=1;align=center;verticalAlign=middle;resizable=0;points=[];strokeColor=#000000;strokeWidth=2;spacingTop=0;spacing=0;fontFamily=Helvetica;fontSize=20;fontColor=default;fillColor=default;" parent="j_ACmnEql-yLn4014SHD-3" vertex="1" connectable="0">
          <mxGeometry x="-0.1261" y="-1" relative="1" as="geometry">
            <mxPoint x="6" y="29" as="offset" />
          </mxGeometry>
        </mxCell>
        <mxCell id="j_ACmnEql-yLn4014SHD-7" value="1..n" style="edgeLabel;html=1;align=center;verticalAlign=middle;resizable=0;points=[];fontSize=12;" parent="j_ACmnEql-yLn4014SHD-3" vertex="1" connectable="0">
          <mxGeometry x="0.6003" y="1" relative="1" as="geometry">
            <mxPoint x="19" y="40" as="offset" />
          </mxGeometry>
        </mxCell>
        <mxCell id="-7S3F1m3oRoCvECHBvp2-180" value="" style="endArrow=none;dashed=1;html=1;edgeStyle=orthogonalEdgeStyle;strokeWidth=2;arcSize=10;rounded=0;fontSize=12;startSize=8;endSize=8;entryX=0.5;entryY=0;entryDx=0;entryDy=0;" parent="1" source="MdcfMWbTVEy-9bZ3t4bT-50" target="MdcfMWbTVEy-9bZ3t4bT-48" edge="1">
          <mxGeometry width="50" height="50" relative="1" as="geometry">
            <mxPoint x="559" y="-111" as="sourcePoint" />
            <mxPoint x="639" y="-111" as="targetPoint" />
            <Array as="points">
              <mxPoint x="177" y="-221" />
              <mxPoint x="396" y="-221" />
              <mxPoint x="396" y="-422" />
            </Array>
          </mxGeometry>
        </mxCell>
        <mxCell id="-7S3F1m3oRoCvECHBvp2-181" value="" style="endArrow=none;dashed=1;html=1;edgeStyle=orthogonalEdgeStyle;strokeWidth=2;arcSize=10;rounded=0;fontSize=12;startSize=8;endSize=8;entryX=0.5;entryY=0;entryDx=0;entryDy=0;" parent="1" source="MdcfMWbTVEy-9bZ3t4bT-56" target="MdcfMWbTVEy-9bZ3t4bT-48" edge="1">
          <mxGeometry width="50" height="50" relative="1" as="geometry">
            <mxPoint x="559" y="-111" as="sourcePoint" />
            <mxPoint x="639" y="-111" as="targetPoint" />
            <Array as="points">
              <mxPoint x="396" y="-422" />
            </Array>
          </mxGeometry>
        </mxCell>
      </root>
    </mxGraphModel>
  </diagram>
</mxfile>
